<?xml version="1.0" standalone="no"?>
<!DOCTYPE svg PUBLIC "-//W3C//DTD SVG 1.1//EN" "http://www.w3.org/Graphics/SVG/1.1/DTD/svg11.dtd" >
<svg>
<metadata>
Created by FontForge 20120731 at Fri Nov 30 07:27:17 2012
 By shadowma
</metadata>
<defs>
<font id="YXFont" horiz-adv-x="1536" vert-adv-y="2048" >
  <font-face 
    font-family="YXFont"
    font-weight="400"
    font-stretch="normal"
    units-per-em="2048"
    panose-1="2 0 5 3 0 0 0 0 0 0"
    ascent="1536"
    descent="-512"
    bbox="-37.755 -259 2008 1567"
    underline-thickness="0"
    underline-position="0"
    unicode-range="U+000D-F116"
  />
    <missing-glyph />
    <glyph glyph-name="uni96E8" unicode="&#x96e8;" horiz-adv-x="1596" vert-adv-y="1059" 
d="M1962 1136q27 -2 37 -23q9 -22 9 -37q-3 -43 -91 -111q-92 -70 -147 -70q-58 1 -143 35q-89 36 -246 62q-159 26 -218 26q-47 0 -56 -36v-3q-2 -9 -2 -18q1 -56 16 -77v-1h1q18 -19 53 -20q308 0 465 -60q61 -23 86 -24q25 1 46 8q23 8 37 9q32 0 39 -29q1 -3 1 -5
q1 -8 1 -15q0 -27 -14 -65q-15 -42 -15 -222q1 -182 17 -232q8 -23 8 -56q0 -73 -30 -134q-32 -57 -58 -62q-17 3 -27 23q-11 27 -24 256q-12 232 -6 280t6 83q-2 34 -26 45v0q-30 12 -237 30q-209 19 -251 19q-41 -1 -60 -9v-1h-1q-18 -11 -27 -28v0q-8 -22 -8 -54l-4 -157
q-5 -123 -5 -177l5 -138q-1 -129 -35 -193q-30 -52 -47 -61q-5 -2 -9 -2q-22 3 -47 35q-26 38 -27 124q1 91 22 306q25 242 25 284q-1 56 -49 64q-9 1 -17 1q-69 0 -219 -15q-151 -15 -194 -25q-42 -12 -54 -36v-1q-12 -28 -12 -111q0 -86 -38 -242q-37 -158 -63 -195
q-22 -30 -34 -35q-4 -1 -5 -1q-14 2 -22 15q-8 16 -9 33q1 48 73 378q18 80 19 109q-1 31 -20 72q-19 43 -20 74q2 31 26 55q27 23 52 24q26 0 41 -4q17 -3 48 -3q34 1 88 16q108 32 359 44q47 3 63 33q14 33 15 82q-2 42 -39 49q-9 2 -18 2q-145 0 -220 -11
q-76 -10 -162 -42q-178 -61 -263 -61q-34 0 -67 10q-33 11 -41 26q-6 18 -6 50q2 134 70 136q18 -1 36 -13q19 -12 36 -13h1q20 1 99 24q85 24 173 35q92 10 391 10q303 0 439 -10q137 -11 267 -50q56 -16 84 -17q30 1 92 19q64 18 87 19v0zM859 559q-2 -19 -33 -66
q-32 -50 -47 -61q-18 -12 -66 -27q-52 -14 -76 -15q-26 1 -58 13q-31 12 -40 24q-7 14 -8 44q2 99 58 101q14 -1 23 -7l1 -1h1q11 -5 35 -5q29 1 68 17q41 17 62 18q22 -1 50 -10q28 -12 30 -25zM1455 568q47 -1 69 -21q21 -20 23 -33q-2 -15 -38 -59q-3 -2 -5 -5
q-43 -49 -75 -50q-36 1 -94 30q-60 30 -83 55q-22 26 -22 66q5 38 30 41q15 -1 39 -13q27 -13 71 -12q47 1 85 1zM1564 200q-4 -27 -61 -76q-60 -50 -98 -51q-39 3 -105 69q-67 69 -68 128q7 56 43 61q19 -1 74 -13q60 -14 98 -31q39 -18 65 -33t39 -28q12 -14 13 -26v0z
M808 299q-1 -25 -24 -75q-27 -52 -82 -80q-59 -28 -121 -28q-64 2 -80 37q-16 37 -16 59q2 22 18 36q20 15 44 15h1h1h1h1h1h1l1 -1h1h1h1h2h1l1 -1h1h1h1h1h1h1l1 -1h1h1h1h2h1q28 2 79 29q58 28 112 29q26 -1 36 -4q6 -6 7 -15z" />
    <glyph glyph-name="uni5401" unicode="&#x5401;" vert-adv-y="1059" 
d="M953 1121q-1 -50 -32 -111q-32 -61 -72 -88l-3 -2l-2 -3q-10 -18 -32 -93q-26 -89 -27 -115v-1l4 -34q-2 -23 -42 -73q-44 -53 -117 -74q-74 -20 -144 -21q-31 -1 -75 -29q-46 -30 -83 -72q-36 -41 -57 -43q-19 2 -24 46v2q-4 49 -4 113q0 61 4 73q27 43 27 117
q0 76 -16 145t-37 109q-21 41 -22 85q1 44 11 73q13 28 42 30q33 -1 56 -7q26 -6 56 -7q34 1 76 10q121 22 202 22t119 -6q38 -7 55 -7q18 1 41 6q25 5 44 5q41 0 50 -32v-2q2 -8 2 -16v0zM455 689l108 13q53 6 70 13v1q17 9 30 23q14 18 32 72q19 56 19 78q0 39 -38 48
q-3 1 -6 1q-10 2 -20 2q-39 -1 -111 -13q-73 -14 -107 -40q-32 -27 -29 -53q4 -29 4 -94q1 -44 36 -50q6 0 10 -1h2zM1922 1079q-2 -21 -33 -66q-36 -48 -146 -49q-49 0 -114 6q-67 5 -159 5q-93 0 -174 -17q-82 -16 -150 -16q-132 6 -137 75q1 36 30 81q31 46 71 47
q14 -1 25 -5q12 -4 23 -4v0q14 0 27 4q100 26 313 26q216 -1 320 -25q96 -29 104 -62zM1946 800q13 1 25 5q11 5 17 6q3 -1 4 -4l1 -2q-4 -21 -62 -109q-6 -9 -13 -20q-76 -111 -171 -112q-45 1 -106 18t-85 18h-1q-23 -2 -35 -13h-1v-1q-12 -15 -17 -52q-5 -41 -3 -106
v-118q-1 -166 -83 -267q-85 -100 -204 -101q-43 1 -133 15q-92 15 -161 43q-53 22 -65 31q-4 5 -4 9q0 10 31 17h2l8 2q44 8 124 19q82 12 121 14q41 2 86 20q47 19 81 49q34 31 54 68q19 40 20 96l8 234q0 51 -50 62q-3 1 -6 1q-12 2 -26 2q-82 0 -157 -19
q-76 -18 -130 -18q-86 1 -101 64q-3 13 -3 27q1 38 25 61q26 22 58 23l34 -4l2 1q15 1 50 13q42 13 97 19q58 7 156 9q42 2 60 16l1 1q17 17 17 70q2 54 27 56q15 -1 40 -16q27 -19 43 -70q18 -50 62 -55q48 -3 68 -11t38 -8q19 1 46 9q51 17 107 17q57 0 75 -5q18 -4 28 -4
h1z" />
    <glyph glyph-name="uniF002" unicode="&#xf002;" horiz-adv-x="1597" vert-adv-y="1000" 
d="M0 901q0 137 52 258t143.5 212t212 143.5t258.5 52.5q137 0 257.5 -52.5t212 -143.5t143.5 -212t52 -258q0 -98 -28.5 -191.5t-81.5 -174.5l358 -359q18 -18 18 -47q0 -16 -18 -43t-45 -53.5t-53.5 -45t-42.5 -18.5q-29 0 -47 19l-359 358q-82 -53 -175 -81.5t-191 -28.5
q-137 0 -258 52t-212.5 143t-143.5 212t-52 258zM266 901q0 -84 32 -156.5t86 -126t127 -85t155 -31.5t154.5 31.5t126.5 85t86 126t32 156.5q0 82 -32 154.5t-86 127t-126.5 86t-154.5 31.5t-155 -31.5t-127 -86t-86 -127t-32 -154.5zM414 901q0 51 19.5 97t54 81t80 54.5
t98.5 19.5q20 0 34.5 -14.5t14.5 -36.5q0 -20 -14.5 -34.5t-34.5 -14.5q-63 0 -107.5 -44t-44.5 -108q0 -20 -14.5 -34.5t-34.5 -14.5q-23 0 -37 14.5t-14 34.5z" />
    <glyph glyph-name="uniF003" unicode="&#xf003;" horiz-adv-x="1843" vert-adv-y="1000" 
d="M0 115v1306q0 47 34 81t81 34h1614q47 0 80.5 -34t33.5 -81v-1306q0 -47 -33.5 -81t-80.5 -34h-1614q-47 0 -81 34t-34 81zM154 154h1536v852q-31 -31 -58 -50q-106 -80 -212.5 -159.5t-211.5 -163.5q-61 -49 -131.5 -94t-156.5 -45q-82 0 -153 45t-132 94
q-104 84 -211 164t-213 159q-27 18 -57 50v-852zM154 1317q0 -31 14 -65.5t35.5 -66.5t47 -59.5t50.5 -46.5q100 -76 199.5 -150.5t199.5 -152.5q20 -16 48 -37.5t58 -42t59.5 -35t54.5 -14.5h2h2q25 0 54.5 14.5t59 35t57 42t48.5 37.5q100 78 199.5 153t199.5 150
q25 18 50.5 46t47 60t36 66.5t14.5 65.5v65h-1536v-65z" />
    <glyph glyph-name="uniF005" unicode="&#xf005;" horiz-adv-x="1675" vert-adv-y="1000" 
d="M1 959.5q9 27.5 54 33.5l506 74l227 459q20 41 49 41t50 -41l227 -459l506 -74q45 -6 54 -33.5t-23 -60.5l-367 -356l86 -504q8 -45 -15.5 -62.5t-64.5 5.5l-452 237l-453 -237q-41 -23 -64.5 -5.5t-15.5 62.5l86 504l-364 356q-35 33 -26 60.5z" />
    <glyph glyph-name="uniF006" unicode="&#xf006;" horiz-adv-x="1675" vert-adv-y="1000" 
d="M0 948q0 23 18.5 32t36.5 13l506 74l227 459q6 14 20 27.5t30 13.5q18 0 30.5 -13.5t18.5 -27.5l227 -459l506 -74q18 -4 36.5 -13t18.5 -32q0 -14 -7 -26.5t-17 -22.5l-367 -356l86 -504q0 -4 1 -9t1 -12q0 -20 -9 -34.5t-32 -14.5t-41 13l-452 237l-453 -237
q-18 -12 -39 -13q-23 0 -33 14.5t-10 34.5q0 6 1 11.5t1 9.5l86 504l-364 356q-10 10 -18.5 22.5t-8.5 26.5zM289 866l274 -268l-65 -377l340 178l340 -178l-66 377l274 268l-378 56l-170 344l-170 -344z" />
    <glyph glyph-name="uniF007" unicode="&#xf007;" horiz-adv-x="1675" vert-adv-y="1000" 
d="M0 57v387q0 37 18.5 82t48 86t65.5 74t71 43q18 6 66 13.5t102.5 14.5t104.5 13t77 10q-92 59 -144.5 153.5t-52.5 205.5q0 88 34 165.5t91.5 136t135 92.5t165.5 34t166 -34t136.5 -92.5t92 -136t33.5 -165.5q0 -109 -52 -204.5t-144 -154.5q27 -4 77 -10t104 -13
t101 -14.5t68 -13.5q35 -10 70.5 -42t65.5 -74t48.5 -87t18.5 -82v-387q-10 -4 -22.5 -14t-27 -19.5t-27.5 -16.5t-22 -7h-1370q-35 0 -53 21.5t-45 35.5z" />
    <glyph glyph-name="uniF02C" unicode="&#xf02c;" horiz-adv-x="1875" vert-adv-y="1000" 
d="M0 961v454q0 49 35 85t86 36h454q25 0 53.5 -6t57.5 -18.5t54.5 -28t41.5 -33.5l670 -748q33 -37 34 -86t-34 -84l-526 -524q-35 -35 -86.5 -37t-83.5 37l-670 746q-35 39 -60.5 98t-25.5 109zM195 1223q0 -47 34.5 -82t83.5 -35q47 0 82 35t35 82q0 49 -35 83.5
t-82 34.5q-49 0 -83.5 -34.5t-34.5 -83.5zM791 1534h174q51 0 112.5 -24.5t93.5 -61.5l670 -748q35 -37 35 -87t-35 -85l-524 -524q-35 -35 -86 -36t-86 36l-12 14l514 514q35 35 34.5 84.5t-34.5 85.5l-670 748q-31 35 -84 56.5t-102 27.5z" />
    <glyph glyph-name="uniF02E" unicode="&#xf02e;" horiz-adv-x="1253" vert-adv-y="1000" 
d="M0 84v1337q0 47 34 81t81 34h1024q47 0 80.5 -34t33.5 -81v-1337q0 -47 -33.5 -81t-80.5 -34t-80 33l-432 432l-432 -432q-33 -33 -80 -33t-81 34t-34 81z" />
    <glyph glyph-name="uniF040" unicode="&#xf040;" vert-adv-y="1000" 
d="M0 0l137 418l867 866l280 -280l-866 -867zM287 407.5q0 -12.5 10 -22.5q8 -8 22 -8q12 0 21 8l690 690q20 20 0 43q-10 10 -22.5 10t-20.5 -10l-690 -688q-10 -10 -10 -22.5zM1102 1382l119 119q35 35 84 35t84 -35l57 -55l55 -57q35 -35 35 -84.5t-35 -83.5l-119 -119z
" />
    <glyph glyph-name="uniF060" unicode="&#xf060;" vert-adv-y="1000" 
d="M0 768q0 39 29 68l671 673q29 29 68 29t68 -29l100 -100q29 -29 29 -67.5t-29 -67.5l-338 -338h842q41 0 68.5 -27.5t27.5 -68.5v-144q0 -39 -27.5 -66.5t-66.5 -27.5h-844l338 -338q29 -29 29 -67.5t-29 -67.5l-100 -100q-29 -29 -68 -29t-68 29l-671 671q-29 29 -29 68
z" />
    <glyph glyph-name="uniF061" unicode="&#xf061;" vert-adv-y="1000" 
d="M0 698v144q0 39 27.5 66.5t66.5 27.5h844l-338 338q-29 29 -29 67.5t29 67.5l100 100q29 29 68 29t68 -29l671 -673q29 -29 29 -67t-29 -67l-671 -673q-29 -29 -68 -29t-68 29l-100 100q-29 29 -29 68t29 67l338 338h-844q-39 0 -66.5 27.5t-27.5 68.5z" />
    <glyph glyph-name="uniF073" unicode="&#xf073;" horiz-adv-x="1566" vert-adv-y="1000" 
d="M0 117v1147q0 47 35 81.5t82 34.5h39v13q0 31 10 62.5t32.5 56t59.5 40t90 15.5t90 -15.5t59.5 -40t33 -56.5t10.5 -62v-13h49v13q0 31 10 62.5t32.5 56t59.5 40t90 15.5t90 -15.5t60.5 -40t34 -56.5t10.5 -62v-13h49v13q0 31 10.5 62.5t33 56t59 40t90.5 15.5
q53 0 90 -15.5t59.5 -40t32.5 -56.5t10 -62v-13h39q47 0 82 -34.5t35 -81.5v-1147q0 -47 -35 -82t-82 -35h-1333q-47 0 -82 35t-35 82zM158 158h282v250h-282v-250zM158 446h282v252h-282v-252zM158 737h282v252h-282v-252zM272 1165q0 -57 76 -57t76 57v228q0 57 -76 57
t-76 -57v-228zM479 158h285v250h-285v-250zM479 446h285v252h-285v-252zM479 737h285v252h-285v-252zM709 1165q0 -31 16 -44t57 -13t58.5 13.5t17.5 43.5v228q0 29 -17.5 43t-58.5 14t-57 -14.5t-16 -42.5v-228zM803 158h284v250h-284v-250zM803 446h284v252h-284v-252z
M803 737h284v252h-284v-252zM1126 158h283v250h-283v-250zM1126 446h283v252h-283v-252zM1126 737h283v252h-283v-252zM1143 1165q0 -57 76 -57t75 57v228q0 57 -75 57q-76 0 -76 -57v-228z" />
    <glyph glyph-name="uniF086" unicode="&#xf086;" horiz-adv-x="1916" vert-adv-y="1000" 
d="M0 997q0 119 61.5 222.5t167 180.5t246.5 122t303 45t303.5 -45t247 -122t166.5 -180.5t61 -222.5q0 -117 -61 -221t-166.5 -181t-247 -122t-303.5 -45q-37 0 -73.5 3t-71.5 7q-147 -113 -336 -155q-20 -4 -40.5 -7.5t-43.5 -7.5q-12 -2 -21.5 6.5t-13.5 18.5v2
q-4 12 3 19.5t18 17.5q18 18 34.5 36.5t29.5 42t24.5 55.5t19.5 79q-141 78 -224 195.5t-83 256.5zM649 258q6 4 13.5 8t13.5 8q51 -6 102 -6q197 0 369 56.5t298 155t198.5 231.5t72.5 286q0 41 -6 84q96 -78 151.5 -175t55.5 -208q0 -139 -83 -256.5t-224 -195.5
q8 -47 19 -79t25.5 -55.5t30 -42t33.5 -36.5q10 -10 17.5 -18.5t3.5 -18.5v-2q-2 -12 -12.5 -19.5t-22.5 -5.5q-23 4 -43.5 7.5t-40.5 7.5q-96 20 -180 60t-156 95q-35 -4 -71.5 -7t-73.5 -3q-141 0 -265 35t-225 94z" />
    <glyph glyph-name="uniF08e" unicode="&#xf08e;" vert-adv-y="1000" 
d="M0 307v922q0 63 24.5 119.5t65.5 97.5t97.5 65.5t119.5 24.5h582q-2 -14 -4 -27.5t-2 -29.5v-88q0 -23 6 -48h-582q-47 0 -80.5 -33.5t-33.5 -80.5v-922q0 -47 33.5 -80.5t80.5 -33.5h1075q47 0 81 33.5t34 80.5v340q41 -31 90 -49t103 -20v-271q0 -63 -25 -118.5
t-67 -97.5t-97 -66.5t-119 -24.5h-1075q-63 0 -119.5 24.5t-97.5 66.5t-65.5 97.5t-24.5 118.5zM692.5 522q-0.5 25 16.5 41l770 772h-269q-25 0 -41 16.5t-16 41.5v86q-2 23 15.5 40t41.5 17h576q23 0 40 -17.5t17 -39.5v-86v-490q0 -25 -17.5 -42t-39.5 -15h-86
q-25 0 -41.5 16.5t-16.5 40.5v268l-772 -770q-16 -16 -40.5 -16t-41.5 16l-79 80q-16 16 -16.5 41z" />
    <glyph glyph-name="uniF097" unicode="&#xf097;" horiz-adv-x="1253" vert-adv-y="1000" 
d="M0 84v1337q0 47 34 81t81 34h1024q47 0 80.5 -34t33.5 -81v-1337q0 -47 -33.5 -81t-80.5 -34t-80 33l-432 432l-432 -432q-33 -33 -80 -33t-81 34t-34 81zM158 186l469 471l469 -471v1194h-938v-1194z" />
    <glyph glyph-name="uniF099" unicode="&#xf099;" horiz-adv-x="1843" vert-adv-y="1000" 
d="M0 399q0 20 13.5 33.5t33.5 13.5q14 0 31 -12q123 -109 287 -108q59 0 117.5 15t107.5 48q-29 16 -47.5 42t-18.5 58q0 23 8 39q-18 6 -44.5 20.5t-51 34t-41 43t-16.5 46.5q0 16 10 28.5t25 22.5q-41 25 -76 74t-35 98q0 33 33 43q-35 35 -55.5 81t-20.5 95
q0 23 9.5 41.5t37.5 18.5q18 0 84 -27t142.5 -60.5t146.5 -67.5t98 -48q25 -14 47.5 -31.5t44.5 -36.5q20 51 47 106.5t60 106.5t73 96t89 74q8 6 24 6q18 0 27 -8q16 6 41.5 13.5t42.5 7.5q29 0 43 -27q31 0 56.5 -15.5t25.5 -50.5q0 -31 -27 -53q96 -43 159.5 -125
t90.5 -182q6 -2 23 -2q47 0 88 16.5t57 16.5q18 0 31.5 -14.5t13.5 -32.5q0 -23 -19.5 -48.5t-33.5 -39.5q23 4 42 -7.5t19 -38.5q0 -29 -26.5 -50t-61.5 -37.5t-72.5 -25.5t-58.5 -11q-43 -139 -133 -246t-210 -178.5t-258 -109.5t-275 -38q-219 0 -415 93.5t-325 273.5
q-8 16 -8 26z" />
    <glyph glyph-name="uniF09A" unicode="&#xf09a;" horiz-adv-x="1847" vert-adv-y="1998" 
d="M1408 409zM528 771v193q0 15 11.5 27t27.5 12h125v97q0 340 366 341q123 0 232 -29q33 -10 29 -41l-27 -189q-4 -15 -16 -25q-16 -9 -31 -6q-35 8 -72.5 12t-66.5 4q-53 0 -65.5 -16t-12.5 -64v-84h223q14 0 29 -13q10 -10 10 -28l-17 -194q0 -16 -11 -25t-27 -9h-207
v-744q0 -16 -11.5 -27t-27.5 -11h-258q-16 0 -27.5 11t-11.5 27v744h-125q-16 0 -27.5 11t-11.5 26z" />
    <glyph glyph-name="uniF09B" unicode="&#xf09b;" horiz-adv-x="1847" vert-adv-y="900" 
d="M0 643q0 115 37 222.5t113 193.5l-3 4l3 2q-16 39 -21.5 81t-5.5 85q0 25 2 56.5t8 65.5t15.5 63.5t23.5 50.5h8q61 0 110.5 -12.5t94.5 -35t87 -52t91 -60.5q86 25 178.5 33t182.5 8t182 -8t180 -33q47 31 90 60.5t87 52t93.5 35t110.5 12.5h10q12 -20 21.5 -50
t15.5 -64t9 -65.5t3 -56.5q0 -43 -6 -85t-20 -81v-2l-2 -4q76 -86 112.5 -193.5t36.5 -222.5q0 -233 -66.5 -383.5t-188.5 -236.5t-292 -120t-376 -34q-207 0 -378 34t-292 120t-187.5 236.5t-66.5 383.5zM250 383q0 -145 64.5 -224t165 -116t219 -43t227.5 -6q74 0 152.5 2
t153.5 12.5t142.5 34t117.5 67.5t80 111.5t30 165.5q0 84 -27 147.5t-75 106.5t-114.5 64.5t-146.5 21.5q-78 0 -156.5 -7t-156.5 -7t-157 7t-157 7q-162 0 -262 -87t-100 -257zM494 424q0 66 26.5 113t65.5 47t66.5 -47t27.5 -113t-27.5 -112.5t-66.5 -46.5t-65.5 46.5
t-26.5 112.5zM795 158q-6 16 12 25q16 6 24 -13q27 -76 93 -75q31 0 56.5 20.5t35.5 54.5q8 20 26 13q16 -6 13 -25q-16 -47 -51 -75.5t-80 -28.5q-43 0 -78 28.5t-51 75.5zM864 269q0 -12 17.5 -21.5t42.5 -9.5t42 9.5t17 21.5t-17.5 21t-41.5 9q-25 0 -42.5 -9t-17.5 -21z
M1167 424q0 -66 28 -112.5t67 -46.5t65.5 46.5t26.5 112.5t-27 113t-65 47q-39 0 -67 -47t-28 -113z" />
    <glyph glyph-name="uniF09E" unicode="&#xf09e;" horiz-adv-x="1566" vert-adv-y="1000" 
d="M0 236q0 49 18.5 91t50 74.5t75 51t92.5 18.5t91 -18.5t74.5 -51t51 -74.5t18.5 -91t-18.5 -92.5t-51 -75t-74.5 -50t-91 -18.5t-92.5 18.5t-75 50t-50 74.5t-18.5 93zM0 819v158q0 35 25 57q23 23 53 23q2 0 3 -1t3 -1q193 -14 362.5 -95t301 -212.5t212 -301.5
t95.5 -362q4 -35 -21 -59q-23 -25 -57 -25h-158q-29 0 -51.5 20.5t-26.5 51.5q-12 133 -68.5 249.5t-145.5 205.5t-205.5 145.5t-249.5 68.5q-31 4 -51.5 27t-20.5 51zM0 1331v158q0 33 25 55q23 23 53 23h4q301 -16 565 -137t463 -320t319.5 -463t137.5 -565q4 -31 -23 -57
q-23 -25 -55 -25h-158q-31 0 -53.5 21.5t-24.5 52.5q-14 238 -110 446.5t-255 367.5t-368 255t-446 110q-31 2 -52.5 24.5t-21.5 53.5z" />
    <glyph glyph-name="uniF0A8" unicode="&#xf0a8;" horiz-adv-x="1597" vert-adv-y="1000" 
d="M0 768q0 166 62.5 311.5t171 254t254 171t311.5 62.5t311 -62.5t254 -171t171 -254t62 -311.5t-62 -311.5t-171 -254t-254 -171t-311 -62.5t-311.5 62.5t-254 171t-171 254t-62.5 311.5zM240 768q0 -29 20 -49l490 -490q20 -20 48.5 -20t49.5 20l74 74q20 20 20 48
t-20 50l-246 246h612q29 0 49.5 19.5t20.5 48.5v104q0 29 -20.5 49.5t-49.5 20.5h-612l246 246q20 20 20 48.5t-20 49.5l-74 74q-20 20 -48 20t-50 -20l-490 -490q-20 -20 -20 -49z" />
    <glyph glyph-name="uniF0A9" unicode="&#xf0a9;" horiz-adv-x="1597" vert-adv-y="1000" 
d="M0 768q0 166 62.5 311.5t171 254t254 171t311.5 62.5t311 -62.5t254 -171t171 -254t62 -311.5t-62 -311.5t-171 -254t-254 -171t-311 -62.5t-311.5 62.5t-254 171t-171 254t-62.5 311.5zM240 717q0 -29 20.5 -49.5t48.5 -20.5h613l-246 -246q-20 -20 -20.5 -48.5
t20.5 -49.5l74 -74q20 -20 47.5 -20t50.5 20l489 490q20 20 20.5 49t-20.5 49l-489 490q-20 20 -49 20t-49 -20l-74 -74q-20 -20 -20.5 -48t20.5 -50l246 -246h-613q-29 0 -49 -19.5t-20 -48.5v-104z" />
    <glyph glyph-name="uniF0C1" unicode="&#xf0c1;" horiz-adv-x="1597" vert-adv-y="1000" 
d="M0 1137q0 88 34 166.5t92 137t136 92.5t168 34q86 0 166 -33t139 -92q8 -8 21.5 -20.5t26 -25t21.5 -25.5t9 -25q0 -18 -12 -31q-6 -8 -25 -12q-47 -10 -88 -22.5t-86 -31.5q-4 -4 -16 -4t-25.5 10.5t-31 21.5t-42 21.5t-57.5 10.5q-35 0 -66.5 -13.5t-54 -37t-36 -54
t-13.5 -67.5q0 -41 17.5 -75t43 -63.5t56.5 -56.5t57 -53l180 -178q23 -25 54.5 -37t66.5 -12q43 0 73 16t46 16q12 0 39 -21.5t55.5 -49t50 -55t21.5 -42.5q0 -29 -36 -51t-83 -38.5t-94 -26t-72 -9.5q-86 0 -164.5 33t-140.5 92l-303 305q-61 59 -94 139.5t-33 166.5z
M578 1010q0 29 35.5 51t82.5 38.5t94 26t72 9.5q86 0 166 -33t139 -92l303 -305q61 -59 94 -139.5t33 -166.5q0 -90 -33.5 -167.5t-92 -136t-137.5 -92.5t-167 -34q-86 0 -165.5 34t-139.5 93q-8 8 -21.5 19.5t-25.5 25t-21.5 26.5t-9.5 26q0 18 13 28q6 8 24 12
q47 10 88 22.5t86 33.5q12 4 17 4q12 0 25.5 -10.5t30.5 -21.5t41 -21.5t58 -10.5q72 0 121 49.5t49 120.5q0 41 -17 76t-44 63.5t-56.5 55.5t-56.5 53l-178 180q-53 49 -123 50q-43 0 -72.5 -17.5t-46.5 -17.5q-12 0 -38.5 21.5t-55 49t-50 56t-21 5t41.5 0.5z" />
    <glyph glyph-name="uniF0D5" unicode="&#xf0d5;" vert-adv-y="1000" 
d="M0 262q0 100 56.5 166t139.5 105.5t179 56t174 18.5q-23 29 -41.5 64t-18.5 76q0 23 6.5 41t14.5 40q-16 -4 -34 -4h-34q-68 0 -130 23.5t-108 66.5t-74 101.5t-28 130.5q0 68 25 128t67 109.5t98 84t120 49.5q88 18 176 18h411l-127 -74h-127q72 -43 107 -120.5
t35 -157.5q0 -94 -33 -149.5t-73 -94.5t-72.5 -70.5t-32.5 -78.5q0 -45 44 -82t97 -82t97 -107.5t44 -161.5q0 -102 -50 -175.5t-126.5 -121t-170 -70t-181.5 -22.5q-66 0 -141.5 15.5t-140 50.5t-106.5 90t-42 137zM174 307q0 -68 35 -116t87 -78.5t114.5 -44t117.5 -13.5
q51 0 104.5 11.5t96.5 38t69.5 68.5t26.5 103q0 49 -21.5 89.5t-53 72t-70.5 59t-76 52.5q-14 2 -29.5 3t-29.5 1q-57 0 -123 -12.5t-121 -41t-91 -75.5t-36 -117zM276 1247q0 -53 17.5 -117.5t51.5 -120t82.5 -92t111.5 -36.5q96 0 134 61.5t38 147.5q0 53 -14.5 118.5
t-45 124t-78 97t-112.5 38.5q-47 0 -82 -18t-57.5 -49t-34 -71t-11.5 -83zM999 1206h215v-215h107v215h215v105h-215v217h-107v-217h-215v-105z" />
    <glyph glyph-name="uniF0E0" unicode="&#xf0e0;" horiz-adv-x="1843" vert-adv-y="1000" 
d="M0 115v905q10 -10 20.5 -17.5t20.5 -15.5q129 -96 256 -191.5t252 -195.5q39 -31 82 -62.5t89 -57t96.5 -41t103.5 -15.5q55 0 105 15.5t96 40t89 56t84 64.5q125 100 252 195.5t256 191.5q10 8 20.5 15.5t20.5 17.5v-905q0 -47 -33.5 -81t-80.5 -34h-1614q-47 0 -81 34
t-34 81zM2 1434q0 41 36 71.5t77 30.5h1614q41 0 76.5 -30.5t35.5 -71.5q0 -31 -18.5 -69t-45 -75t-57 -67.5t-53.5 -48.5q-123 -92 -241.5 -182.5t-239.5 -182.5q-25 -18 -57.5 -45t-67.5 -51.5t-71 -42t-66 -17.5h-2h-2q-31 0 -67 17.5t-70.5 42t-67.5 51.5t-58 45
q-121 92 -239.5 182t-241.5 183q-23 18 -53.5 48.5t-57 67.5t-45 75t-18.5 69z" />
    <glyph glyph-name="uniF0E1" unicode="&#xf0e1;" horiz-adv-x="1576" vert-adv-y="1000" 
d="M0 1376q0 39 15.5 74t41 60.5t60 41t73.5 15.5t74 -15.5t61.5 -41t41 -60.5t14.5 -74t-14.5 -73.5t-41 -60t-61.5 -41t-74 -15.5t-73.5 15.5t-60 41t-41 60t-15.5 73.5zM10 41v991q0 16 12.5 28.5t28.5 12.5h281q16 0 28.5 -12t12.5 -29v-991q0 -16 -12.5 -28.5
t-28.5 -12.5h-281q-16 0 -28.5 12.5t-12.5 28.5zM524 41v991q0 16 12.5 28.5t28.5 12.5h273q33 0 37 -25.5t4 -48.5q57 53 129.5 76t150.5 23q190 0 304 -95.5t114 -293.5v-668q0 -16 -12.5 -28.5t-28.5 -12.5h-289q-16 0 -27.5 12.5t-11.5 28.5v604q0 76 -27.5 116
t-111.5 40q-53 0 -89 -17.5t-56.5 -47t-28.5 -70.5t-8 -88v-537q0 -16 -12.5 -28.5t-28.5 -12.5h-281q-16 0 -28.5 12.5t-12.5 28.5z" />
    <glyph glyph-name="uniF0E6" unicode="&#xf0e6;" horiz-adv-x="1916" vert-adv-y="1000" 
d="M0 997q0 98 40 182.5t106.5 151t150.5 113.5t170 76q76 25 154.5 36t156.5 11q80 0 159 -11.5t155 -35.5q86 -29 170 -76t149.5 -113.5t105 -150.5t39.5 -183q0 -98 -39.5 -182t-105 -149.5t-149.5 -113.5t-170 -77q-154 -47 -314 -47q-37 0 -72.5 3t-72.5 7
q-150 -115 -336 -155q-20 -4 -43 -9.5t-45 -5.5q-12 0 -21.5 9.5t-9.5 23.5q0 10 8 17l13 14q51 51 72.5 96t35.5 117q-63 35 -118.5 82t-97.5 104t-66.5 124t-24.5 142zM160 997q0 -72 30.5 -127t77.5 -99t104.5 -78t112.5 -64l-20 -111q33 18 63.5 42t59.5 46
q47 -6 95 -12t95 -6q135 0 264 41q61 18 124 52t114 81t84 105.5t33 129.5q0 72 -33 131.5t-84 105.5t-113.5 80t-124.5 52q-63 23 -129.5 32t-134.5 9q-66 0 -132 -9t-132 -32q-59 -18 -122.5 -52t-115 -80t-84 -105.5t-32.5 -131.5zM649 258l27 16q51 -6 102 -6
q197 0 381 62q111 37 211 99.5t177 147.5t123 190t46 230q0 41 -6 84q90 -72 148.5 -169t58.5 -214q0 -76 -24.5 -142.5t-66.5 -123.5t-97.5 -104t-118.5 -82q14 -72 35.5 -117t72.5 -96q6 -6 13.5 -14.5t7.5 -18.5q0 -16 -10.5 -23.5t-24.5 -7.5q-20 0 -43 5.5t-41 9.5
q-186 41 -336 155q-37 -4 -72.5 -7t-72.5 -3q-129 0 -254 32t-236 97z" />
    <glyph glyph-name="uniF109" unicode="&#xf109;" horiz-adv-x="1936" vert-adv-y="2068" 
d="M1186 1354q101 26 194 8q22 -5 29 -11q32 -32 12 -69q-9 -12 -19 -18q-32 -15 -113 -24q-88 -12 -180 -56q-95 -45 -179 -62q-145 -31 -205 -131q-5 -7 -8 -13q-20 -39 -7 -42q19 -3 168 34q323 82 416 66q79 -16 119 -81q14 -26 15 -49q0 -69 -66 -175q-25 -40 -45 -55
l-36 -25l36 -48q35 -50 28 -55q-8 -9 -231 -62q-220 -56 -316 -49h-7q-120 9 -138 52q-6 16 -6 36q-2 41 -41 87q-70 78 -91 174q-6 29 -3 45q12 38 113 145q86 95 134 118q27 12 75 26q104 31 127 58q17 19 -3 21q-18 1 -77 -4q-96 -9 -179 -44q-169 -73 -229 -1
q-52 65 -11 99q9 6 18 10q146 56 404 77q51 4 91 4q164 3 211 14v0zM1241 817q0 18 -22 19q-32 0 -197 -30q-237 -41 -275 -77q-16 -17 -19 -40q-5 -65 24 -75t131 4q205 30 310 120q46 42 48 79v0v0v0v0zM1281 418q39 75 128 33q3 -2 5 -3q56 -31 6 -105q-52 -76 -138 -94
q-18 -4 -34 -4q-53 0 -231 -83q-76 -36 -90 -51q-15 -17 14 -21q19 -1 59 -1q89 0 186 23q176 41 279 11q11 -3 18 -6q38 -20 39 -61q0 -60 -64 -81q-61 -20 -231 -30q-235 -16 -439 -44q-341 -46 -404 -18q-33 18 -34 57q0 61 81 83q44 12 117 19q243 21 494 165
q184 108 239 211v0v0v0v0zM495 308q49 19 101 7q17 -4 40 -11q69 -16 133 -1l65 17l-43 -61q-56 -77 -127 -88q-24 -4 -55 -4q-88 0 -134 57q-42 51 11 79q5 3 9 4v0v0v0v0v1z" />
    <glyph glyph-name="uniF10A" unicode="&#xf10a;" horiz-adv-x="1974" vert-adv-y="4096" 
d="M969 1493q106 56 187 12q6 -3 9 -5q52 -34 73 -125q14 -57 30 -175q24 -186 36 -202q16 -12 248 -17q238 -5 287 -27q32 -15 67 -56q47 -58 33 -101q-9 -22 -28 -52q-46 -68 -143 -135q-51 -35 -148 -96q-170 -105 -184 -127q-15 -31 76 -313q60 -192 7 -266
q-45 -60 -107 -65l-26 -2q-74 1 -170 58q-59 35 -188 123q-188 128 -205 134q-28 7 -174 -97q-47 -34 -79 -61q-96 -85 -158 -81q-8 1 -16 3q-62 11 -121 100q-14 23 -24 44q-26 56 -27 119q-1 22 0 58q2 119 32 235q38 138 34 163q-5 22 -40 76q-120 186 -173 315
q-52 130 -11 244q19 50 50 72q58 37 153 -11q20 -10 42 -22q158 -91 268 -117q16 -3 24 -3q25 0 61 44q23 28 79 105q136 186 179 221q20 15 47 30v0zM1137 1399q-38 59 -130 11q-41 -22 -102 -101q-41 -52 -144 -193q-77 -106 -130 -115q-28 -4 -62 5q-129 34 -279 114
q-11 6 -18 11q-67 40 -89 40q-39 0 -43 -86q-2 -64 20 -121q46 -115 165 -302q5 -8 9 -13q48 -74 44 -138q-4 -43 -26 -129q-53 -202 -42 -294q11 -88 66 -151q11 -12 19 -18q25 -18 40 -10q6 4 15 9q36 25 93 72q72 60 144 103q79 47 120 48q5 0 11 -1q69 0 108 -38
q3 -4 4 -5q15 -20 308 -205q50 -32 65 -39q39 -20 79 -23q110 -3 59 172q-4 13 -9 26q-68 205 -87 318q-5 41 5 69q14 40 54 74q10 8 15 9q18 0 280 175q59 40 75 53q71 60 59 107q-10 46 -103 53q-28 2 -65 3q-91 0 -250 8q-135 6 -155 20q-8 6 -17 14q-29 27 -43 111
q-9 50 -26 181q-20 146 -37 176v0zM745 1040q109 41 163 -49q6 -13 11 -24q13 -28 24 -29q12 2 43 17q55 29 117 4q19 -8 28 -19q68 -84 59 -211q-2 -37 -12 -67q-15 -45 -19 -60q-1 -22 -55 -82q-17 -17 -25 -21q-105 -49 -162 26q-7 11 -12 20q-16 33 -16 42q-1 7 -13 18
q-16 8 -40 -13q-43 -39 -92 -32q-56 11 -96 69q-12 20 -16 36q-38 171 29 295q35 61 84 80zM837 932q-3 18 -20 22q-25 3 -28 -17q0 -11 4 -19q12 -20 34 -5q9 9 10 19zM993 861q26 41 6 40q-7 -2 -13 -5q-19 -9 -24 -4q-13 12 -48 -22q-16 -17 -19 -29q-12 -44 -53 -73
q-58 -41 -113 11q-20 20 -32 45l-14 30l-9 -34q-22 -79 17 -160q14 -26 29 -38q32 -21 91 12q31 20 31 10q3 -9 24 -10q45 0 67 -36q4 -8 8 -15q41 -80 103 -46q23 15 42 41q29 37 29 50q0 18 -47 30q-20 5 -31 2q-15 -2 -16 6q-2 9 -10 12q-34 1 -38 82q-2 65 20 101z
M1119 832q-9 24 -35 14q-11 -3 -14 -13q-4 -15 10 -31q18 -14 31 -1q13 16 8 31zM559 723q0 38 15 5q9 -21 18 -54q47 -184 156 -281q25 -21 47 -33q154 -75 402 93q63 43 63 34q-3 -9 -34 -40q-133 -127 -295 -163q-3 -1 -4 -1q-136 -28 -238 91q-30 36 -52 79
q-41 86 -72 230q-5 28 -6 40z" />
    <glyph glyph-name="uniF10E" unicode="&#xf10e;" horiz-adv-x="1814" vert-adv-y="4096" 
d="M905 1472q18 5 34 -5q17 -17 30 -51q10 -25 65 -143q3 -7 6.5 -14.5t5 -11.5t1.5 -5q2 -5 25 -55q32 -71 43 -95q64 -148 81 -161q12 -9 141 -21h2h2q64 -5 92 -10q26 -4 72 -8q215 -17 245 -24q32 -12 33 -35q0 -19 -46 -63q-14 -13 -36 -33q-48 -45 -78 -73
q-4 -4 -68 -64q-182 -168 -186 -184q-2 -13 4 -35q6 -23 0 -28q-21 -15 -289 3q-31 2 -57 4q-59 5 -80 6q-100 6 -122 18q-8 9 41 43q19 13 51 35q30 19 38 27q5 5 10 7q6 2 10 6q8 8 74 52q69 47 104 72q27 19 160 110q49 33 36 40q-9 4 -35 7q-13 2 -65 9q-25 3 -90 8
q-235 16 -364 8q-17 -1 -60 -4q-46 -3 -64 -4q-61 -4 -128 -12q-148 -19 -47 -25q8 0 15 -1q349 -14 380 -22q15 -4 32 -4q65 0 135 -18q4 -2 6 -2q10 -7 -43 -46q-12 -9 -26 -19q-50 -36 -87 -62q-23 -16 -39 -27q-29 -22 -51 -37q-39 -28 -66 -47q-27 -20 -57 -40
q-23 -16 -56 -40q-27 -20 -65 -46q-33 -23 -33 -32q0 -10 14 -12q5 0 9 -1q126 -15 326 -18q154 -1 266 9q157 14 305 43q24 4 26 0q-1 -5 -3 -10q-11 -18 -65 -33q-25 -7 -22 -38q1 -12 4 -28q6 -25 12 -66q4 -20 17 -92q13 -73 15 -88q6 -29 10 -44q4 -16 8 -52
q6 -56 -9 -67q-15 -9 -45 0q-3 2 -4 2q-8 4 -67 40h-1q-2 2 -13 9q-10 5 -15 8q-16 11 -34 20q-14 6 -26 14q-11 8 -28 17q-28 15 -86 49q-56 33 -93 54q-19 10 -41 24q-53 35 -84 36q-32 -2 -87 -38q-20 -12 -25 -14q-6 -2 -26 -14q-19 -13 -31 -18q-12 -6 -30 -18
q-65 -42 -80 -46q-4 -2 -37 -22q-36 -22 -45 -26q-13 -7 -31 -18q-20 -14 -24 -14q-6 -2 -14 -7q-11 -9 -41 -24q-64 -33 -79 5q-4 17 0 30q4 15 7 38q3 21 6 33q3 9 7 36q4 22 10 53q12 57 21 106q2 12 9 52q8 40 10 55q6 32 8 38t6 33q6 33 11 50q5 19 5 40v21l-48 45
q-54 51 -80 74q-28 27 -58 54q-47 43 -52 48q-21 20 -90 83q-56 51 -75 70q-27 30 -7 54q6 6 12 9q16 5 80 12q22 3 81 9q42 5 57 7q85 9 126 14q18 2 52 5q18 2 22 3q3 0 11 1q38 5 59 7q64 8 80 28q9 12 20 35q3 5 5 10t4 9.5t4 8.5t3 6.5t1 4.5l1 2q2 6 8 14q8 10 8 15
q2 8 48 103q8 15 15.5 30.5t13.5 27.5t10.5 21.5t6.5 14.5l2 6q2 6 42 87q4 7 8 15t7 15t6.5 13.5t5.5 11.5l6 12l4 9l3 7l1 4l1 3q0 12 29 34q3 2 5 3v0z" />
    <glyph glyph-name="uniF10F" unicode="&#xf10f;" horiz-adv-x="1847" vert-adv-y="1000" 
d="M684 885q-2 -256 -132 -470q-127 -211 -338 -316q-188 225 -188 508q0 292 188 511q187 218 470 268v-501zM1195 -86q-176 -96 -380.5 -96t-377.5 96q305 196 378 494q72 -298 380 -494zM945 888v498q283 -50 470 -268q188 -219 188 -511q0 -288 -185 -508
q-204 100 -338.5 311t-134.5 478v0z" />
    <glyph glyph-name="uniF111" unicode="&#xf111;" horiz-adv-x="1724" vert-adv-y="1000" 
d="M1265 1407q41 6 80 -1q130 -22 187 -140q15 -31 22 -63q4 -27 3 -57q-2 -55 -22 -98q-24 -49 -42 -58q-12 -3 -19 -1q-14 9 -16 23q2 9 11 24q38 58 38 121q-1 29 -6 49q-26 99 -121 138q-4 1 -6 2q-84 30 -163 -9q-33 -18 -57 -42q-35 -39 -50 -89q-14 -51 0 -104
q18 -56 56 -94q55 -50 130 -57q28 -2 34 -6q20 -14 6 -34q-5 -6 -9 -8q-29 -14 -102 10q-5 2 -8 4q-119 45 -154 167q-5 19 -8 35q-5 37 0 70q18 108 102 171q52 38 114 47v0zM447 1277q43 3 98 -5q96 -15 175 -65q180 -114 206 -329q1 -8 2 -15q11 -146 -68 -271
q-116 -177 -322 -206q-86 -12 -162 8q-29 10 -31 40q3 31 32 41q12 2 37 -2q66 -11 131 0q159 29 245 167q35 59 47 123q25 145 -56 269q-39 57 -97 97q-78 51 -165 60q-171 19 -294 -101q-42 -42 -69 -93q-40 -80 -40 -166q1 -84 36 -159q11 -27 3 -45q-16 -30 -50 -21
q-13 5 -20 13q-22 27 -40 99q-53 203 67 371q25 34 53 62q83 79 192 111q42 12 90 17v0v0zM1277 1243q11 3 28 2q61 -3 78 -61q14 -50 -25 -87l-13 -13l11 -23q91 -188 300 -273q21 -8 28 -13q19 -12 6 -33q-5 -6 -8 -8q-14 -8 -68 17q-3 1 -4 1q-137 63 -227 172
q-54 67 -84 140q-7 10 -14 11q-26 5 -46 24q-9 11 -17 24q-7 18 -7 37q1 23 7 37q20 35 55 46zM462 986q6 1 22 2q92 1 135 -80q12 -25 16 -51q10 -72 -42 -124q-54 -53 -125 -44q-33 5 -56 18q-7 3 -10 4q-9 -3 -56 -65q-153 -205 -184 -469q-1 -8 -1.5 -23t-1 -32.5
t-1 -38t-0.5 -41.5v-40l1 -37q1 -31 -3 -39q-14 -28 -48 -21q-3 1 -4 1q-19 8 -26 29q-15 53 -4 213q1 15 2 27q11 97 33 178q64 227 216 403q20 23 19 28q-1 6 -4 19q-10 35 -1 70q28 92 123 113v0v0z" />
    <glyph glyph-name="uniF116" unicode="&#xf116;" horiz-adv-x="1636" vert-adv-y="950" 
d="M1109 1436q88 38 242 -6q56 -17 96 -39q145 -87 203 -260q32 -95 22 -182q-20 -157 -95 -148q-17 4 -34 13q-24 14 -27 42q-1 24 -1 103q0 132 -29 179q-15 25 -48 63q-84 93 -240 94q-95 4 -116 22q-46 47 -8 94q15 16 35 25v0zM557 1228q114 41 192 9q5 -2 8 -3
q74 -42 64 -164l-7 -76l75 26q263 89 338 -37q7 -15 13 -30q16 -57 -17 -141q-6 -14 27 -28q10 -4 19 -8q162 -57 181 -200q17 -152 -130 -294q-208 -198 -548 -226q-295 -25 -541 95q-283 139 -268 387q13 201 216 420q193 203 378 270v0zM869 794q-203 56 -416 -16
q-119 -40 -199 -116q-96 -92 -97 -192q0 -170 216 -255q32 -12 64 -21q122 -34 308 -4q48 8 81 18q231 78 294 229q19 44 19 89q0 144 -170 229q-46 23 -100 39v0zM515 685q96 44 207 19q17 -4 33 -10q88 -37 131 -130q16 -38 17 -71q0 -121 -114 -209q-24 -17 -48 -30
q-97 -50 -216 -26q-32 8 -54 20q-129 70 -130 201q3 154 174 236v0v0v0zM597 474q-25 25 -81 6q-19 -6 -29 -15q-33 -34 -19 -81q4 -12 11 -18q33 -34 91 3q39 27 41 61q-2 29 -14 44zM1129 1206q23 24 78 20h11q134 -10 189 -122q23 -47 23 -101q0 -107 -56 -120
q-26 -3 -54 15q-24 20 -24 78q-5 115 -102 117q-75 0 -88 51q-6 32 23 62z" />
  </font>
</defs>
</svg>
